# xmcd
#
# Track frame offsets: 
#        150
#        14500
#        27420
#        45391
#        59696
#        67705
#        95862
#        119691
#        144801
#        165307
#        180944
#        194136
#        208026
#        223068
#        239416
#
# Disc length: 3505 seconds
#
# Revision: 8
# Processed by: cddbd v1.5.2PL0 Copyright (c) Steve Scherf et al.
# Submitted via: ExactAudioCopy v0.90b4
#
DISCID=db0daf0f
DTITLE=Various Artist - Jazz in the City (Disk 2 of 2)
DYEAR=2004
DGENRE=Jazz
TTITLE0=Michael Buble - Crazy Little Thing Called Love
TTITLE1=Bette Midler - Mambo Italiano
TTITLE2=Steve Tyrell - As Time Goes By
TTITLE3=Ken Hirai - Don't Know Why
TTITLE4=Kelly Rowland - I'm beginning to See the light
TTITLE5=Sinead O'Connor - Bewitched Bothered and Bewildered
TTITLE6=Eva Cassidy - God Bless the Child
TTITLE7=Luther Vandross - Killing Me Softly
TTITLE8=Aaron Neville - Cry Me a River
TTITLE9=Will Young - Light My Fire
TTITLE10=Keiko Lee - You'd Be So Nice to Come Home To
TTITLE11=Charlotte Church - Summertime
TTITLE12=Alison Moyet - The First Time Ever I Saw Your Face
TTITLE13=Wendy Matthews - A Kiss to Build a Dream On
TTITLE14=Kyle Eastwood - Why Can't We Live Together (feat. Diana King)
EXTD=YEAR: 2004
EXTT0=
EXTT1=
EXTT2=
EXTT3=
EXTT4=
EXTT5=
EXTT6=
EXTT7=
EXTT8=
EXTT9=
EXTT10=
EXTT11=
EXTT12=
EXTT13=
EXTT14=
PLAYORDER=
